<?xml version="1.0" encoding="UTF-8" standalone="no"?>
<!DOCTYPE svg PUBLIC "-//W3C//DTD SVG 1.1//EN"
 "http://www.w3.org/Graphics/SVG/1.1/DTD/svg11.dtd">
<!-- Generated by graphviz version 12.2.1 (0)
 -->
<!-- Title: G Pages: 1 -->
<svg width="703pt" height="397pt"
 viewBox="0.00 0.00 702.70 397.45" xmlns="http://www.w3.org/2000/svg" xmlns:xlink="http://www.w3.org/1999/xlink">
<g id="graph0" class="graph" transform="scale(1 1) rotate(0) translate(21.6 375.85)">
<title>G</title>
<polygon fill="#111111" stroke="none" points="-21.6,21.6 -21.6,-375.85 681.1,-375.85 681.1,21.6 -21.6,21.6"/>
<!-- ../config.json -->
<g id="node1" class="node">
<title>../config.json</title>
<path fill="none" stroke="#cfffac" d="M233.21,-354.25C233.21,-354.25 144.79,-354.25 144.79,-354.25 140.58,-354.25 136.38,-350.04 136.38,-345.83 136.38,-345.83 136.38,-337.42 136.38,-337.42 136.38,-333.21 140.58,-329 144.79,-329 144.79,-329 233.21,-329 233.21,-329 237.42,-329 241.62,-333.21 241.62,-337.42 241.62,-337.42 241.62,-345.83 241.62,-345.83 241.62,-350.04 237.42,-354.25 233.21,-354.25"/>
<text text-anchor="middle" x="189" y="-336.95" font-family="Arial" font-size="14.00" fill="#cfffac">../config.json</text>
</g>
<!-- app.ts -->
<g id="node2" class="node">
<title>app.ts</title>
<path fill="none" stroke="#c6c5fe" d="M51.08,-234.25C51.08,-234.25 8.42,-234.25 8.42,-234.25 4.21,-234.25 0,-230.04 0,-225.83 0,-225.83 0,-217.42 0,-217.42 0,-213.21 4.21,-209 8.42,-209 8.42,-209 51.08,-209 51.08,-209 55.29,-209 59.5,-213.21 59.5,-217.42 59.5,-217.42 59.5,-225.83 59.5,-225.83 59.5,-230.04 55.29,-234.25 51.08,-234.25"/>
<text text-anchor="middle" x="29.75" y="-216.95" font-family="Arial" font-size="14.00" fill="#c6c5fe">app.ts</text>
</g>
<!-- app.ts&#45;&gt;../config.json -->
<g id="edge1" class="edge">
<title>app.ts&#45;&gt;../config.json</title>
<path fill="none" stroke="#757575" d="M36.26,-234.54C45.52,-254.7 66.11,-293.49 95.5,-314.62 104.37,-321 114.74,-325.88 125.26,-329.62"/>
<polygon fill="#757575" stroke="#757575" points="124.19,-332.95 134.78,-332.65 126.31,-326.28 124.19,-332.95"/>
</g>
<!-- errors/AppError.ts -->
<g id="node3" class="node">
<title>errors/AppError.ts</title>
<path fill="none" stroke="#cfffac" d="M651.08,-234.25C651.08,-234.25 529.67,-234.25 529.67,-234.25 525.46,-234.25 521.25,-230.04 521.25,-225.83 521.25,-225.83 521.25,-217.42 521.25,-217.42 521.25,-213.21 525.46,-209 529.67,-209 529.67,-209 651.08,-209 651.08,-209 655.29,-209 659.5,-213.21 659.5,-217.42 659.5,-217.42 659.5,-225.83 659.5,-225.83 659.5,-230.04 655.29,-234.25 651.08,-234.25"/>
<text text-anchor="middle" x="590.38" y="-216.95" font-family="Arial" font-size="14.00" fill="#cfffac">errors/AppError.ts</text>
</g>
<!-- app.ts&#45;&gt;errors/AppError.ts -->
<g id="edge2" class="edge">
<title>app.ts&#45;&gt;errors/AppError.ts</title>
<path fill="none" stroke="#757575" d="M59.99,-229.62C132.57,-248.3 326.56,-291.06 485.25,-261.62 508.71,-257.27 533.7,-247.85 553.32,-239.24"/>
<polygon fill="#757575" stroke="#757575" points="554.57,-242.51 562.24,-235.2 551.69,-236.14 554.57,-242.51"/>
</g>
<!-- services/musicService.ts -->
<g id="node4" class="node">
<title>services/musicService.ts</title>
<path fill="none" stroke="#c6c5fe" d="M274.08,-191.25C274.08,-191.25 103.92,-191.25 103.92,-191.25 99.71,-191.25 95.5,-187.04 95.5,-182.83 95.5,-182.83 95.5,-174.42 95.5,-174.42 95.5,-170.21 99.71,-166 103.92,-166 103.92,-166 274.08,-166 274.08,-166 278.29,-166 282.5,-170.21 282.5,-174.42 282.5,-174.42 282.5,-182.83 282.5,-182.83 282.5,-187.04 278.29,-191.25 274.08,-191.25"/>
<text text-anchor="middle" x="189" y="-173.95" font-family="Arial" font-size="14.00" fill="#c6c5fe">services/musicService.ts</text>
</g>
<!-- app.ts&#45;&gt;services/musicService.ts -->
<g id="edge3" class="edge">
<title>app.ts&#45;&gt;services/musicService.ts</title>
<path fill="none" stroke="#757575" d="M59.96,-213.64C79.36,-208.33 105.51,-201.18 129.12,-194.73"/>
<polygon fill="#757575" stroke="#757575" points="129.92,-198.13 138.65,-192.12 128.08,-191.38 129.92,-198.13"/>
</g>
<!-- utils/errorHandler.ts -->
<g id="node5" class="node">
<title>utils/errorHandler.ts</title>
<path fill="none" stroke="#c6c5fe" d="M470.08,-234.25C470.08,-234.25 333.67,-234.25 333.67,-234.25 329.46,-234.25 325.25,-230.04 325.25,-225.83 325.25,-225.83 325.25,-217.42 325.25,-217.42 325.25,-213.21 329.46,-209 333.67,-209 333.67,-209 470.08,-209 470.08,-209 474.29,-209 478.5,-213.21 478.5,-217.42 478.5,-217.42 478.5,-225.83 478.5,-225.83 478.5,-230.04 474.29,-234.25 470.08,-234.25"/>
<text text-anchor="middle" x="401.88" y="-216.95" font-family="Arial" font-size="14.00" fill="#c6c5fe">utils/errorHandler.ts</text>
</g>
<!-- app.ts&#45;&gt;utils/errorHandler.ts -->
<g id="edge4" class="edge">
<title>app.ts&#45;&gt;utils/errorHandler.ts</title>
<path fill="none" stroke="#757575" d="M59.79,-221.62C113.83,-221.62 231.76,-221.62 313.71,-221.62"/>
<polygon fill="#757575" stroke="#757575" points="313.51,-225.13 323.51,-221.63 313.51,-218.13 313.51,-225.13"/>
</g>
<!-- utils/logger.ts -->
<g id="node6" class="node">
<title>utils/logger.ts</title>
<path fill="none" stroke="#cfffac" d="M636.83,-154.25C636.83,-154.25 543.92,-154.25 543.92,-154.25 539.71,-154.25 535.5,-150.04 535.5,-145.83 535.5,-145.83 535.5,-137.42 535.5,-137.42 535.5,-133.21 539.71,-129 543.92,-129 543.92,-129 636.83,-129 636.83,-129 641.04,-129 645.25,-133.21 645.25,-137.42 645.25,-137.42 645.25,-145.83 645.25,-145.83 645.25,-150.04 641.04,-154.25 636.83,-154.25"/>
<text text-anchor="middle" x="590.38" y="-136.95" font-family="Arial" font-size="14.00" fill="#cfffac">utils/logger.ts</text>
</g>
<!-- app.ts&#45;&gt;utils/logger.ts -->
<g id="edge5" class="edge">
<title>app.ts&#45;&gt;utils/logger.ts</title>
<path fill="none" stroke="#757575" d="M39.23,-208.64C50.16,-193.16 70.74,-167.97 95.5,-156.62 236.91,-91.86 425.77,-111.31 523.91,-128.18"/>
<polygon fill="#757575" stroke="#757575" points="523.19,-131.6 533.65,-129.9 524.41,-124.71 523.19,-131.6"/>
</g>
<!-- services/musicService.ts&#45;&gt;errors/AppError.ts -->
<g id="edge14" class="edge">
<title>services/musicService.ts&#45;&gt;errors/AppError.ts</title>
<path fill="none" stroke="#757575" d="M208.5,-191.53C232.54,-207.43 276.43,-233.59 318.5,-243.62 389.56,-260.57 473.75,-248.97 529.19,-237.16"/>
<polygon fill="#757575" stroke="#757575" points="529.74,-240.62 538.75,-235.05 528.23,-233.79 529.74,-240.62"/>
</g>
<!-- services/musicService.ts&#45;&gt;utils/logger.ts -->
<g id="edge16" class="edge">
<title>services/musicService.ts&#45;&gt;utils/logger.ts</title>
<path fill="none" stroke="#757575" d="M257.82,-165.52C277.34,-162.16 298.71,-158.86 318.5,-156.62 388.3,-148.74 468.71,-144.95 523.67,-143.16"/>
<polygon fill="#757575" stroke="#757575" points="523.6,-146.67 533.49,-142.86 523.39,-139.67 523.6,-146.67"/>
</g>
<!-- config/index.ts -->
<g id="node8" class="node">
<title>config/index.ts</title>
<path fill="none" stroke="#c6c5fe" d="M452.83,-71.25C452.83,-71.25 350.92,-71.25 350.92,-71.25 346.71,-71.25 342.5,-67.04 342.5,-62.83 342.5,-62.83 342.5,-54.42 342.5,-54.42 342.5,-50.21 346.71,-46 350.92,-46 350.92,-46 452.83,-46 452.83,-46 457.04,-46 461.25,-50.21 461.25,-54.42 461.25,-54.42 461.25,-62.83 461.25,-62.83 461.25,-67.04 457.04,-71.25 452.83,-71.25"/>
<text text-anchor="middle" x="401.88" y="-53.95" font-family="Arial" font-size="14.00" fill="#c6c5fe">config/index.ts</text>
</g>
<!-- services/musicService.ts&#45;&gt;config/index.ts -->
<g id="edge13" class="edge">
<title>services/musicService.ts&#45;&gt;config/index.ts</title>
<path fill="none" stroke="#757575" d="M212.97,-165.55C250.44,-144.23 324.87,-101.88 367.95,-77.36"/>
<polygon fill="#757575" stroke="#757575" points="369.66,-80.42 376.62,-72.43 366.2,-74.33 369.66,-80.42"/>
</g>
<!-- services/fileService.ts -->
<g id="node11" class="node">
<title>services/fileService.ts</title>
<path fill="none" stroke="#c6c5fe" d="M476.83,-191.25C476.83,-191.25 326.92,-191.25 326.92,-191.25 322.71,-191.25 318.5,-187.04 318.5,-182.83 318.5,-182.83 318.5,-174.42 318.5,-174.42 318.5,-170.21 322.71,-166 326.92,-166 326.92,-166 476.83,-166 476.83,-166 481.04,-166 485.25,-170.21 485.25,-174.42 485.25,-174.42 485.25,-182.83 485.25,-182.83 485.25,-187.04 481.04,-191.25 476.83,-191.25"/>
<text text-anchor="middle" x="401.88" y="-173.95" font-family="Arial" font-size="14.00" fill="#c6c5fe">services/fileService.ts</text>
</g>
<!-- services/musicService.ts&#45;&gt;services/fileService.ts -->
<g id="edge15" class="edge">
<title>services/musicService.ts&#45;&gt;services/fileService.ts</title>
<path fill="none" stroke="#757575" d="M282.8,-178.62C290.84,-178.62 298.97,-178.62 307.02,-178.62"/>
<polygon fill="#757575" stroke="#757575" points="306.8,-182.13 316.8,-178.63 306.8,-175.13 306.8,-182.13"/>
</g>
<!-- utils/errorHandler.ts&#45;&gt;errors/AppError.ts -->
<g id="edge17" class="edge">
<title>utils/errorHandler.ts&#45;&gt;errors/AppError.ts</title>
<path fill="none" stroke="#757575" d="M478.73,-221.62C488.84,-221.62 499.24,-221.62 509.42,-221.62"/>
<polygon fill="#757575" stroke="#757575" points="509.28,-225.13 519.28,-221.63 509.28,-218.13 509.28,-225.13"/>
</g>
<!-- utils/errorHandler.ts&#45;&gt;utils/logger.ts -->
<g id="edge18" class="edge">
<title>utils/errorHandler.ts&#45;&gt;utils/logger.ts</title>
<path fill="none" stroke="#757575" d="M461.99,-208.59C469.92,-206.25 477.86,-203.6 485.25,-200.62 511.96,-189.88 540.27,-173.47 560.61,-160.69"/>
<polygon fill="#757575" stroke="#757575" points="562.38,-163.71 568.92,-155.38 558.61,-157.82 562.38,-163.71"/>
</g>
<!-- config/default.ts -->
<g id="node7" class="node">
<title>config/default.ts</title>
<path fill="none" stroke="#cfffac" d="M646.58,-111.25C646.58,-111.25 534.17,-111.25 534.17,-111.25 529.96,-111.25 525.75,-107.04 525.75,-102.83 525.75,-102.83 525.75,-94.42 525.75,-94.42 525.75,-90.21 529.96,-86 534.17,-86 534.17,-86 646.58,-86 646.58,-86 650.79,-86 655,-90.21 655,-94.42 655,-94.42 655,-102.83 655,-102.83 655,-107.04 650.79,-111.25 646.58,-111.25"/>
<text text-anchor="middle" x="590.38" y="-93.95" font-family="Arial" font-size="14.00" fill="#cfffac">config/default.ts</text>
</g>
<!-- config/index.ts&#45;&gt;errors/AppError.ts -->
<g id="edge9" class="edge">
<title>config/index.ts&#45;&gt;errors/AppError.ts</title>
<path fill="none" stroke="#757575" d="M417.37,-71.65C439.6,-91.59 483.51,-130.83 521.25,-163.62 535.82,-176.29 552.31,-190.33 565.41,-201.43"/>
<polygon fill="#757575" stroke="#757575" points="562.82,-203.82 572.72,-207.61 567.34,-198.48 562.82,-203.82"/>
</g>
<!-- config/index.ts&#45;&gt;utils/logger.ts -->
<g id="edge10" class="edge">
<title>config/index.ts&#45;&gt;utils/logger.ts</title>
<path fill="none" stroke="#757575" d="M455,-71.73C465.41,-75.43 475.98,-80.02 485.25,-85.62 504.34,-97.18 502.05,-109.24 521.25,-120.62 523.17,-121.76 525.15,-122.84 527.18,-123.87"/>
<polygon fill="#757575" stroke="#757575" points="525.72,-127.05 536.28,-127.94 528.58,-120.66 525.72,-127.05"/>
</g>
<!-- config/index.ts&#45;&gt;config/default.ts -->
<g id="edge6" class="edge">
<title>config/index.ts&#45;&gt;config/default.ts</title>
<path fill="none" stroke="#757575" d="M461.63,-71.23C479.22,-75 498.73,-79.18 517.09,-83.12"/>
<polygon fill="#757575" stroke="#757575" points="516.35,-86.54 526.86,-85.22 517.82,-79.7 516.35,-86.54"/>
</g>
<!-- config/schema.ts -->
<g id="node9" class="node">
<title>config/schema.ts</title>
<path fill="none" stroke="#cfffac" d="M649.21,-68.25C649.21,-68.25 531.54,-68.25 531.54,-68.25 527.33,-68.25 523.12,-64.04 523.12,-59.83 523.12,-59.83 523.12,-51.42 523.12,-51.42 523.12,-47.21 527.33,-43 531.54,-43 531.54,-43 649.21,-43 649.21,-43 653.42,-43 657.62,-47.21 657.62,-51.42 657.62,-51.42 657.62,-59.83 657.62,-59.83 657.62,-64.04 653.42,-68.25 649.21,-68.25"/>
<text text-anchor="middle" x="590.38" y="-50.95" font-family="Arial" font-size="14.00" fill="#cfffac">config/schema.ts</text>
</g>
<!-- config/index.ts&#45;&gt;config/schema.ts -->
<g id="edge7" class="edge">
<title>config/index.ts&#45;&gt;config/schema.ts</title>
<path fill="none" stroke="#757575" d="M461.63,-57.68C477.42,-57.43 494.74,-57.15 511.4,-56.88"/>
<polygon fill="#757575" stroke="#757575" points="511.34,-60.38 521.28,-56.72 511.23,-53.38 511.34,-60.38"/>
</g>
<!-- config/types.ts -->
<g id="node10" class="node">
<title>config/types.ts</title>
<path fill="none" stroke="#cfffac" d="M641.33,-25.25C641.33,-25.25 539.42,-25.25 539.42,-25.25 535.21,-25.25 531,-21.04 531,-16.83 531,-16.83 531,-8.42 531,-8.42 531,-4.21 535.21,0 539.42,0 539.42,0 641.33,0 641.33,0 645.54,0 649.75,-4.21 649.75,-8.42 649.75,-8.42 649.75,-16.83 649.75,-16.83 649.75,-21.04 645.54,-25.25 641.33,-25.25"/>
<text text-anchor="middle" x="590.38" y="-7.95" font-family="Arial" font-size="14.00" fill="#cfffac">config/types.ts</text>
</g>
<!-- config/index.ts&#45;&gt;config/types.ts -->
<g id="edge8" class="edge">
<title>config/index.ts&#45;&gt;config/types.ts</title>
<path fill="none" stroke="#757575" d="M456.07,-45.5C477.72,-40.16 502.93,-33.95 525.56,-28.37"/>
<polygon fill="#757575" stroke="#757575" points="526.09,-31.84 534.96,-26.05 524.42,-25.04 526.09,-31.84"/>
</g>
<!-- services/fileService.ts&#45;&gt;errors/AppError.ts -->
<g id="edge11" class="edge">
<title>services/fileService.ts&#45;&gt;errors/AppError.ts</title>
<path fill="none" stroke="#757575" d="M459.59,-191.7C479.12,-196.2 501.19,-201.29 521.52,-205.98"/>
<polygon fill="#757575" stroke="#757575" points="520.6,-209.36 531.13,-208.2 522.17,-202.54 520.6,-209.36"/>
</g>
<!-- services/fileService.ts&#45;&gt;utils/logger.ts -->
<g id="edge12" class="edge">
<title>services/fileService.ts&#45;&gt;utils/logger.ts</title>
<path fill="none" stroke="#757575" d="M468.89,-165.53C486.77,-161.98 506.11,-158.14 523.95,-154.6"/>
<polygon fill="#757575" stroke="#757575" points="524.53,-158.06 533.65,-152.68 523.16,-151.19 524.53,-158.06"/>
</g>
</g>
</svg>
